<?xml version="1.0" encoding="utf-8"?>
<!-- Generator: Adobe Illustrator 19.1.0, SVG Export Plug-In . SVG Version: 6.00 Build 0)  -->
<svg version="1.1" xmlns="http://www.w3.org/2000/svg" xmlns:xlink="http://www.w3.org/1999/xlink" x="0px" y="0px"
	 viewBox="0 0 720 611" style="enable-background:new 0 0 720 611;" xml:space="preserve">
<style type="text/css">
	.st0{fill:#DA1E40;}
	.st1{fill:#223064;}
	.st2{fill:#FFFFFF;}
	.st3{clip-path:url(#SVGID_2_);fill:#212F64;}
	.st4{clip-path:url(#SVGID_2_);fill:#DA1E40;}
	.st5{clip-path:url(#SVGID_2_);fill:#FFFFFF;}
	.st6{fill:none;stroke:#212F64;stroke-linejoin:round;stroke-miterlimit:10;}
	.st7{fill:#F5EB2A;}
	.st8{fill:#212F64;}
	.st9{display:none;}
</style>
<g id="Layer_2">
	<g>
		<polygon class="st0" points="35.153,36.35 684.846,36.35 360,599 		"/>
		<path class="st1" d="M674.454,42.35L360,587L45.546,42.35H674.454 M695.239,30.35H24.761L360,611L695.239,30.35L695.239,30.35z"/>
	</g>
</g>
<g id="Layer_3">
	<g>
		<path class="st2" d="M360,477c-62.504,0-121.266-24.34-165.463-68.537C150.34,364.267,126,305.504,126,243
			c0-62.503,24.34-121.266,68.537-165.463S297.497,9,360,9c62.504,0,121.267,24.34,165.463,68.537
			C569.66,121.734,594,180.496,594,243s-24.34,121.267-68.537,165.463C481.267,452.66,422.504,477,360,477z"/>
		<path class="st1" d="M360,15c30.785,0,60.643,6.027,88.744,17.912c27.149,11.483,51.533,27.924,72.476,48.867
			c20.943,20.943,37.384,45.327,48.867,72.476C581.973,182.357,588,212.215,588,243s-6.027,60.643-17.912,88.744
			c-11.483,27.149-27.924,51.533-48.867,72.476c-20.943,20.943-45.327,37.384-72.476,48.867C420.643,464.973,390.785,471,360,471
			s-60.643-6.027-88.744-17.912c-27.149-11.483-51.533-27.924-72.476-48.867s-37.384-45.327-48.867-72.476
			C138.027,303.643,132,273.785,132,243s6.027-60.643,17.912-88.744c11.483-27.149,27.924-51.533,48.867-72.476
			c20.943-20.943,45.327-37.384,72.476-48.867C299.357,21.027,329.215,15,360,15 M360,3C227.452,3,120,110.452,120,243
			s107.452,240,240,240s240-107.452,240-240S492.548,3,360,3L360,3z"/>
	</g>
</g>
<g id="Layer_5">
	<g>
		<g>
			<defs>
				<path id="SVGID_1_" d="M225.679,212.726c13.557,0.109,27.078,0.868,40.646,1.231c3.361,0.09,6.727,0.119,10.09,0.169
					c1.92,0.028,8.357,1.112,10.3,0.097c2.599-1.358,1.153-12.589,1.19-16.26c0.174-17.126,0.899-34.396,1.046-51.52
					c0.127-14.817,0.106-29.552,0.54-44.343c16.491,1.113,33.169,0.182,49.754,0.079c3.456-0.021,7.847-0.07,11.693-0.159
					c0.548,16.146,0.301,32.314,0.674,48.457c2.726-1.607,4.646,4.124,7.157,4.536c0.983,0.161,1.543-0.931,1.545-0.931
					c0.132-0.002,1.672,0.223,1.851,0.181c0.587-0.138,1.318,0.744,1.973,0.626c0.335-0.06-0.415-1.928,0.454-2.137
					c0.668-0.161,2.123,2.21,2.116,1.966c1.917,0.705,0.728,4.568,3.114,3.958c0.623,0.542,3.325,0.499,4.328,0.795
					c1.248,0.369,1.853,1.03,3.214,1.045c0.035,0,2.155-0.756,2.334-0.726c1.422,0.239,2.065,2.105,3.242,2.276
					c1.716,0.249,1.354-1.412,2.143-1.729c1.098-0.441,5.846-0.251,6.273,0.191c-0.061-0.064-0.536,2.072-0.282,2.357
					c0.997,1.121,2.537,0.565,3.377,0.817c-0.225,1.215-0.331,1.755-0.627,1.918c1.038,3.331,4.357-0.303,5.019-0.732
					c2.374-1.54,0.625-0.718,3.018-0.182c-0.847-0.19,0.924,1.216,0.696,1.048c0.283,0.209,1.093-0.875,1.668-0.487
					c1.849,1.251-0.587,1.898,2.507,1.957c-0.366-0.007,1.946-0.795,2.108-0.832c0.244-0.056,0.049-2.008,0.976-1.366
					c0.872,0.604,0.514,1.808,0.606,2.001c0.127,0.266-0.626,2.985,1.409,2.878c0.246-0.013,2.667-5.407,2.657-6.107
					c-0.149,0.05,0.145,0.589,0.125,0.557c1.941-1.623,0.725,0.365,1.584,0.747c0.043,0.019,0.961,1.193,1.094,1.318
					c-0.484-0.455,0.782-0.652,1.05-0.584c0.972,0.248,2.759,1.894,2.545-1.29c0.347,0.039,1.591,0.304,1.8,0.406
					c-0.253,0.243-0.566,1.102-0.864,1.363c1.354,0.174,1.841,1.085,2.494,1.398c0.178,0.085,3.054,1.496,3.057,1.496
					c1.618,0.127,0.108-0.585,1.428-1.153c1.155-0.497,3.417,0.81,2.43-1.4c0.79-0.543,0.567-0.693,1.668-0.486
					c0.143-0.09-0.134-0.44-0.122-0.445c1.048,0.19,0.871,0.104,1.561-0.26c-0.022-0.005,0.207,0.336,0.12,0.333
					c0.581-0.294,0.437-0.309,0.543-0.684c0.982-0.355,0.557,0.315,1.218-0.588c1.096,0.831,2.111,1.514,2.365,0.617
					c0.743,0.108,5.48-3.522,5.689-0.804c0.106-0.031,0.739-0.367,0.776-0.354c0.898,0.734,3.115,0.216,4.594,0.23
					c1.71-4.608,4.005,0.697,6.6-0.153c0.501,1.123,1.484,2.364,2.528,2.852c0.615,0.288,1.054-0.662,1.783-0.377
					c0.266,0.104,0.493,1.144,0.926,1.322c1.073,0.441,4.778,1.801,5.957,1.094c-0.388,0.502-0.076,0.343-0.424,1.017
					c1.061,0.247,0.927,0.575,1.798,0.294c-0.049,1.235,0.151,1.076,0.903,0.315c0.119-0.008,0.319,0.57,0.46,0.549
					c0.301-0.382,0.438-0.647,0.763-0.913c-0.071,0.011-0.104,0.551-0.1,0.562c0.112-0.003,0.224-0.005,0.336-0.008
					c0.214-0.287,0.235-0.682,0.653-0.799c0.151,0.352-0.183,0.34-0.206,0.789c0.72-0.066,0.761-0.182,1.23-0.028
					c-0.06-0.091-0.6-0.497-0.569-0.435c0.669-0.414,0.844-0.44,1.561-0.26c-0.001,0.006-0.149,0.418-0.216,0.341
					c0.111-0.04,0.15-0.004,0.115,0.109c0.059-0.025,0.275-0.286,0.33-0.231c-0.154,0.029,0.116,0.525,0.125,0.557
					c0.662-0.679,0.59-0.408,1.441-0.593c0.001,0.136-0.113,0.398-0.33,0.231c0.002,0.075,0.003,0.149,0.005,0.224
					c2.044,1.025,1.546,13.312,1.71,15.857c0.392,6.077,0.874,12.148,1.206,18.219c0.208,3.802,0.395,4.146,2.614,6.544
					c0.641,0.693,2.226,1.971,2.645,3.073c0.57,1.5-0.283,3.554-0.013,4.254c0.514,1.335,1.572,1.166,2.058,1.855
					c0.168,0.239,0.211,1.387,0.027,1.175c1.208,1.394,3.378,8.106,5.084,6.879c-0.035,0.113,0.004,0.149,0.115,0.109
					c-0.575,1.332,0.36,2.004,0.293,3.016c-0.011,0.168-0.518,1.628-0.525,1.468c-0.014-0.281,0.715,1.461,0.707,1.551
					c-0.132,1.528-0.911,4.183-1.549,5.633c-0.483,1.098-0.804,1.816-1.166,2.825c-0.413,1.153-0.364,1.562-0.505,2.363
					c-0.081,0.464-0.709,3.084-0.713,3.039c0.099,1.056,0.797,1.676,0.949,2.329c0.346,1.489,0.16,5.281,0.803,5.691
					c0.002,0.075,0.003,0.149,0.005,0.224c-1.601,0.964-2.296,2.964-3.02,4.884c-0.367,0.972-1.495,0.716-1.408,2.047
					c0.03,0.464,2.3,1.757,2.068,2.303c-0.363,0.854-3.278,0.448-4.182,0.656c-3.093,0.714-6.203,2.879-9.021,4.351
					c-2.374,1.24-4.654,3.568-6.725,4.41c1.169-2.083,3.769-4.843,5.942-4.391c-1.532-2.594-4.352,1.19-6.385-0.188
					c1.238-0.545,2.625-3.546,1.564-4.962c-1.883-2.512-2.912,1.452-4.31,2.395c-0.801,0.541-1.359-1.501-1.821,1.106
					c-0.196,1.108-0.57,3.033,2.025,2.863c-0.196,0.763,1.041,7.871,2.318,3.417c0.578,0.077,1.544,0.27,2.024,0.401
					c-4.939,3.981-9.812,9.18-14.929,12.66c-5.997,4.078-15.658,7.434-19.963,12.777c0.024-0.102-0.015-0.175-0.117-0.221
					c2.057-2.697,8.071-4.069,8.572-6.803c-1.67-0.142-3.709,1.123-5.44,1.917c-0.043-1.358,1.312-2.606-0.177-2.795
					c-0.885-0.112-4.275,2.632-5.406,3.372c0.215-1.248-0.244-0.444-0.585-1.106c-0.599-0.507-3.584-4.785-2.309-0.618
					c0.625,2.041,3.539,2.27,4.868,4.813c-1.375,0.762-3.717,2.586-5.312,2.586c-1.064,0-1.563-2.305-2.83-1.39
					c-1.135,0.819,0.148,3.478-0.181,4.258c-0.664,1.57-2.96,2.118-3.795,2.886c-1.066,0.981-0.378,0.471-1.241,1.988
					c-0.484,0.85-1.23,2.194-1.94,3.236c-2.636,3.871-0.967,0.956-3.498,1.2c-3.424,0.331-2.45,4.195,0.887,4.457
					c-1.44,2.714-1.91,11.252-6.141,10.33c3.511-1.513-1.139-2.283-1.676,0.151c-0.479,2.171,2.892,1.052,4.488,0.456
					c-0.66,3.738-1.394,3.959-1.078,6.63c-4.178-0.976,0.113,5.409,0.478,6.146c1.445,2.916,0.73,6.593,1.423,8.251
					c1.085,0.312,1.189,0.47,0.718,1.998c2.218-1.715-0.111,1.499,1.824,1.413c0.066,2.339,0.96,3.198,1.619,4.664
					c-0.379-0.845,2.65,2.263,0.537,1.443c0.96,0.373,1.462,1.043,0.989-0.806c0.178-0.215,0.4-0.295,0.666-0.239
					c0.816,4.107-2.074,1.915-3.947,3.561c-1.493,1.312-0.872,2.563-3.439,1.311c-2.998-1.462-4.414-3.844-7.818-4.073
					c-1.933-0.13-5.013,0.535-5.715-0.315c-1.089,0.496-3.955,0.761-4.165-1.023c-1.408-0.185-0.888,0.209-1.48-1.086
					c-1.049,0.423-4.368-1.35-5.521-1.551c-2.125-0.372-2.703-1.337-4.867-2.35c-3.329-1.558-6.686-0.831-8.111-4.682
					c-0.72-1.946-1.557-4.789-2.566-6.881c-0.909-1.883-2.572-2.528-2.67-4.136c-2.413-0.868-1.16-2.51-1.334-4.447
					c-0.25-2.779-0.964-2.599-2.437-3.75c0.968-0.955,1.997-4.695,0.117-4.593c0.603-1.554,0.135-2.793-1.293-2.657
					c-0.931-1.14-1.96-0.733-3.291-1.939c-1.896-1.719-2.128-2.195-3.282-3.954c-1.204-1.836-1.785-3.784-3.601-5.682
					c-1.345-1.406-3.239-2.56-4.399-3.872c-1.582-1.79-2.175-4.067-2.939-6.089c0.408-0.234,0.382-0.057,0.661-0.464
					c-1.796-0.449-1.743-2.298-2.432-3.526c-2.575-0.079-3.727-8.464-4.952-10.856c-1.678-3.276-5.113-5.816-8.134-8.096
					c-1.245-0.94-2.9-1.679-4.092-2.703c-0.888-0.763,0.031-2.551-1.943-1.747c0.052-0.804-1.296-3.325-2.276-4.033
					c-1.619-1.171-2.963-0.008-4.649-0.172c-1.259-0.123-3.26-0.637-5.002-0.892c-1.426-0.209-3.33,0.601-4.525,0.328
					c-1.689-0.385-2.929-1.997-4.298-1.916c-1.377,0.081-0.724,0.092-1.889,0.603c-0.479,0.21-0.084,1.405-0.52,1.691
					c-0.354,0.232-0.82-0.385-1.153-0.225c-1.361,0.655-2.987,0.112-4.425,1.026c-0.818,0.52-2.232,2.515-2.718,3.477
					c-0.825,1.633-0.936,3.703-1.662,5.58c-0.456,1.178-1.268,3.761-1.705,3.734c-0.12,0.118,0.377,0.452,0.016,0.671
					c-3.29-0.423-5.378,9.57-9.319,3.574c-1.867,1.323-2.859-1.776-3.861-2.374c-1.719-1.026-3.713-1.626-5.545-2.614
					c-1.702-0.918-3.971-1.33-5.876-2.383c-1.723-0.952-2.228-2.704-3.557-3.78c-3.076-2.49-5.412-3.315-7.452-7.608
					c-1.161-2.443-2.092-3.135-2.377-5.99c-0.142-1.425,0.172-3.815-0.694-5.805c-0.844-1.937-2.264-3.725-2.934-5.866
					c-0.591-1.886-2.172-5.114-3.696-4.952c-1.553-2.792-3.917-2.677-5.913-4.005c-2.639-1.756-3.992-4.518-6.09-6.8
					c-1.401-1.523-3.08-2.382-4.688-4.258c-1.529-1.784-2.77-2.404-4.954-3.691c-3.618-2.131-4.591-6.961-7.764-9
					c-1.061-0.682-4.625-2.832-2.783-4.19c-0.492-0.77-0.576-1.579,0.457-2.025C215.619,211.135,222.959,212.454,225.679,212.726z
					 M412.512,329.749c0.113-2.7,1.541-6.114,2.707-8.795c0.378-0.869,3.89-4.505,2.012-4.972c2.211-0.124,5.066-6.391,5.415-7.85
					c0.582,0.406,3.135-1.678,4.53-2.512c1.262-0.754,4.16-2.613,5.286-3.761c0.419,1.101-7.717,6.377-9.218,7.938
					c-2.14,2.224-4.162,5.407-5.633,8.079c-5.119,9.299-6.114,18.419-2.702,28.329c1.524,4.427,2.617,8.829,3.557,13.408
					c-1.213-2.167-1.211-5.893-2.211-8.457c-0.87-2.233-1.738-4.049-2.382-6.214C412.504,340.348,411.775,334.811,412.512,329.749z"
					/>
			</defs>
			<clipPath id="SVGID_2_">
				<use xlink:href="#SVGID_1_"  style="overflow:visible;"/>
			</clipPath>
			<rect x="201" y="70" class="st3" width="150" height="303"/>
			<rect x="351" y="229" class="st4" width="151" height="144"/>
			<rect x="351" y="70" class="st5" width="151" height="159"/>
		</g>
		<path class="st6" d="M225.679,212.726c13.557,0.109,27.078,0.868,40.646,1.231c3.361,0.09,6.727,0.119,10.09,0.169
			c1.92,0.028,8.357,1.112,10.3,0.097c2.599-1.358,1.153-12.589,1.19-16.26c0.174-17.126,0.899-34.396,1.046-51.52
			c0.127-14.817,0.106-29.552,0.54-44.343c16.491,1.113,33.169,0.182,49.754,0.079c3.456-0.021,7.847-0.07,11.693-0.159
			c0.548,16.146,0.301,32.314,0.674,48.457c2.726-1.607,4.646,4.124,7.157,4.536c0.983,0.161,1.543-0.931,1.545-0.931
			c0.132-0.002,1.672,0.223,1.851,0.181c0.587-0.138,1.318,0.744,1.973,0.626c0.335-0.06-0.415-1.928,0.454-2.137
			c0.668-0.161,2.123,2.21,2.116,1.966c1.917,0.705,0.728,4.568,3.114,3.958c0.623,0.542,3.325,0.499,4.328,0.795
			c1.248,0.369,1.853,1.03,3.214,1.045c0.035,0,2.155-0.756,2.334-0.726c1.422,0.239,2.065,2.105,3.242,2.276
			c1.716,0.249,1.354-1.412,2.143-1.729c1.098-0.441,5.846-0.251,6.273,0.191c-0.061-0.064-0.536,2.072-0.282,2.357
			c0.997,1.121,2.537,0.565,3.377,0.817c-0.225,1.215-0.331,1.755-0.627,1.918c1.038,3.331,4.357-0.303,5.019-0.732
			c2.374-1.54,0.625-0.718,3.018-0.182c-0.847-0.19,0.924,1.216,0.696,1.048c0.283,0.209,1.093-0.875,1.668-0.487
			c1.849,1.251-0.587,1.898,2.507,1.957c-0.366-0.007,1.946-0.795,2.108-0.832c0.244-0.056,0.049-2.008,0.976-1.366
			c0.872,0.604,0.514,1.808,0.606,2.001c0.127,0.266-0.626,2.985,1.409,2.878c0.246-0.013,2.667-5.407,2.657-6.107
			c-0.149,0.05,0.145,0.589,0.125,0.557c1.941-1.623,0.725,0.365,1.584,0.747c0.043,0.019,0.961,1.193,1.094,1.318
			c-0.484-0.455,0.782-0.652,1.05-0.584c0.972,0.248,2.759,1.894,2.545-1.29c0.347,0.039,1.591,0.304,1.8,0.406
			c-0.253,0.243-0.566,1.102-0.864,1.363c1.354,0.174,1.841,1.085,2.494,1.398c0.178,0.085,3.054,1.496,3.057,1.496
			c1.618,0.127,0.108-0.585,1.428-1.153c1.155-0.497,3.417,0.81,2.43-1.4c0.79-0.543,0.567-0.693,1.668-0.486
			c0.143-0.09-0.134-0.44-0.122-0.445c1.048,0.19,0.871,0.104,1.561-0.26c-0.022-0.005,0.207,0.336,0.12,0.333
			c0.581-0.294,0.437-0.309,0.543-0.684c0.982-0.355,0.557,0.315,1.218-0.588c1.096,0.831,2.111,1.514,2.365,0.617
			c0.743,0.108,5.48-3.522,5.689-0.804c0.106-0.031,0.739-0.367,0.776-0.354c0.898,0.734,3.115,0.216,4.594,0.23
			c1.71-4.608,4.005,0.697,6.6-0.153c0.501,1.123,1.484,2.364,2.528,2.852c0.615,0.288,1.054-0.662,1.783-0.377
			c0.266,0.104,0.493,1.144,0.926,1.322c1.073,0.441,4.778,1.801,5.957,1.094c-0.388,0.502-0.076,0.343-0.424,1.017
			c1.061,0.247,0.927,0.575,1.798,0.294c-0.049,1.235,0.151,1.076,0.903,0.315c0.119-0.008,0.319,0.57,0.46,0.549
			c0.301-0.382,0.438-0.647,0.763-0.913c-0.071,0.011-0.104,0.551-0.1,0.562c0.112-0.003,0.224-0.005,0.336-0.008
			c0.214-0.287,0.235-0.682,0.653-0.799c0.151,0.352-0.183,0.34-0.206,0.789c0.72-0.066,0.761-0.182,1.23-0.028
			c-0.06-0.091-0.6-0.497-0.569-0.435c0.669-0.414,0.844-0.44,1.561-0.26c-0.001,0.006-0.149,0.418-0.216,0.341
			c0.111-0.04,0.15-0.004,0.115,0.109c0.059-0.025,0.275-0.286,0.33-0.231c-0.154,0.029,0.116,0.525,0.125,0.557
			c0.662-0.679,0.59-0.408,1.441-0.593c0.001,0.136-0.113,0.398-0.33,0.231c0.002,0.075,0.003,0.149,0.005,0.224
			c2.044,1.025,1.546,13.312,1.71,15.857c0.392,6.077,0.874,12.148,1.206,18.219c0.208,3.802,0.395,4.146,2.614,6.544
			c0.641,0.693,2.226,1.971,2.645,3.073c0.57,1.5-0.283,3.554-0.013,4.254c0.514,1.335,1.572,1.166,2.058,1.855
			c0.168,0.239,0.211,1.387,0.027,1.175c1.208,1.394,3.378,8.106,5.084,6.879c-0.035,0.113,0.004,0.149,0.115,0.109
			c-0.575,1.332,0.36,2.004,0.293,3.016c-0.011,0.168-0.518,1.628-0.525,1.468c-0.014-0.281,0.715,1.461,0.707,1.551
			c-0.132,1.528-0.911,4.183-1.549,5.633c-0.483,1.098-0.804,1.816-1.166,2.825c-0.413,1.153-0.364,1.562-0.505,2.363
			c-0.081,0.464-0.709,3.084-0.713,3.039c0.099,1.056,0.797,1.676,0.949,2.329c0.346,1.489,0.16,5.281,0.803,5.691
			c0.002,0.075,0.003,0.149,0.005,0.224c-1.601,0.964-2.296,2.964-3.02,4.884c-0.367,0.972-1.495,0.716-1.408,2.047
			c0.03,0.464,2.3,1.757,2.068,2.303c-0.363,0.854-3.278,0.448-4.182,0.656c-3.093,0.714-6.203,2.879-9.021,4.351
			c-2.374,1.24-4.654,3.568-6.725,4.41c1.169-2.083,3.769-4.843,5.942-4.391c-1.532-2.594-4.352,1.19-6.385-0.188
			c1.238-0.545,2.625-3.546,1.564-4.962c-1.883-2.512-2.912,1.452-4.31,2.395c-0.801,0.541-1.359-1.501-1.821,1.106
			c-0.196,1.108-0.57,3.033,2.025,2.863c-0.196,0.763,1.041,7.871,2.318,3.417c0.578,0.077,1.544,0.27,2.024,0.401
			c-4.939,3.981-9.812,9.18-14.929,12.66c-5.997,4.078-15.658,7.434-19.963,12.777c0.024-0.102-0.015-0.175-0.117-0.221
			c2.057-2.697,8.071-4.069,8.572-6.803c-1.67-0.142-3.709,1.123-5.44,1.917c-0.043-1.358,1.312-2.606-0.177-2.795
			c-0.885-0.112-4.275,2.632-5.406,3.372c0.215-1.248-0.244-0.444-0.585-1.106c-0.599-0.507-3.584-4.785-2.309-0.618
			c0.625,2.041,3.539,2.27,4.868,4.813c-1.375,0.762-3.717,2.586-5.312,2.586c-1.064,0-1.563-2.305-2.83-1.39
			c-1.135,0.819,0.148,3.478-0.181,4.258c-0.664,1.57-2.96,2.118-3.795,2.886c-1.066,0.981-0.378,0.471-1.241,1.988
			c-0.484,0.85-1.23,2.194-1.94,3.236c-2.636,3.871-0.967,0.956-3.498,1.2c-3.424,0.331-2.45,4.195,0.887,4.457
			c-1.44,2.714-1.91,11.252-6.141,10.33c3.511-1.513-1.139-2.283-1.676,0.151c-0.479,2.171,2.892,1.052,4.488,0.456
			c-0.66,3.738-1.394,3.959-1.078,6.63c-4.178-0.976,0.113,5.409,0.478,6.146c1.445,2.916,0.73,6.593,1.423,8.251
			c1.085,0.312,1.189,0.47,0.718,1.998c2.218-1.715-0.111,1.499,1.824,1.413c0.066,2.339,0.96,3.198,1.619,4.664
			c-0.379-0.845,2.65,2.263,0.537,1.443c0.96,0.373,1.462,1.043,0.989-0.806c0.178-0.215,0.4-0.295,0.666-0.239
			c0.816,4.107-2.074,1.915-3.947,3.561c-1.493,1.312-0.872,2.563-3.439,1.311c-2.998-1.462-4.414-3.844-7.818-4.073
			c-1.933-0.13-5.013,0.535-5.715-0.315c-1.089,0.496-3.955,0.761-4.165-1.023c-1.408-0.185-0.888,0.209-1.48-1.086
			c-1.049,0.423-4.368-1.35-5.521-1.551c-2.125-0.372-2.703-1.337-4.867-2.35c-3.329-1.558-6.686-0.831-8.111-4.682
			c-0.72-1.946-1.557-4.789-2.566-6.881c-0.909-1.883-2.572-2.528-2.67-4.136c-2.413-0.868-1.16-2.51-1.334-4.447
			c-0.25-2.779-0.964-2.599-2.437-3.75c0.968-0.955,1.997-4.695,0.117-4.593c0.603-1.554,0.135-2.793-1.293-2.657
			c-0.931-1.14-1.96-0.733-3.291-1.939c-1.896-1.719-2.128-2.195-3.282-3.954c-1.204-1.836-1.785-3.784-3.601-5.682
			c-1.345-1.406-3.239-2.56-4.399-3.872c-1.582-1.79-2.175-4.067-2.939-6.089c0.408-0.234,0.382-0.057,0.661-0.464
			c-1.796-0.449-1.743-2.298-2.432-3.526c-2.575-0.079-3.727-8.464-4.952-10.856c-1.678-3.276-5.113-5.816-8.134-8.096
			c-1.245-0.94-2.9-1.679-4.092-2.703c-0.888-0.763,0.031-2.551-1.943-1.747c0.052-0.804-1.296-3.325-2.276-4.033
			c-1.619-1.171-2.963-0.008-4.649-0.172c-1.259-0.123-3.26-0.637-5.002-0.892c-1.426-0.209-3.33,0.601-4.525,0.328
			c-1.689-0.385-2.929-1.997-4.298-1.916c-1.377,0.081-0.724,0.092-1.889,0.603c-0.479,0.21-0.084,1.405-0.52,1.691
			c-0.354,0.232-0.82-0.385-1.153-0.225c-1.361,0.655-2.987,0.112-4.425,1.026c-0.818,0.52-2.232,2.515-2.718,3.477
			c-0.825,1.633-0.936,3.703-1.662,5.58c-0.456,1.178-1.268,3.761-1.705,3.734c-0.12,0.118,0.377,0.452,0.016,0.671
			c-3.29-0.423-5.378,9.57-9.319,3.574c-1.867,1.323-2.859-1.776-3.861-2.374c-1.719-1.026-3.713-1.626-5.545-2.614
			c-1.702-0.918-3.971-1.33-5.876-2.383c-1.723-0.952-2.228-2.704-3.557-3.78c-3.076-2.49-5.412-3.315-7.452-7.608
			c-1.161-2.443-2.092-3.135-2.377-5.99c-0.142-1.425,0.172-3.815-0.694-5.805c-0.844-1.937-2.264-3.725-2.934-5.866
			c-0.591-1.886-2.172-5.114-3.696-4.952c-1.553-2.792-3.917-2.677-5.913-4.005c-2.639-1.756-3.992-4.518-6.09-6.8
			c-1.401-1.523-3.08-2.382-4.688-4.258c-1.529-1.784-2.77-2.404-4.954-3.691c-3.618-2.131-4.591-6.961-7.764-9
			c-1.061-0.682-4.625-2.832-2.783-4.19c-0.492-0.77-0.576-1.579,0.457-2.025C215.619,211.135,222.959,212.454,225.679,212.726z
			 M412.512,329.749c0.113-2.7,1.541-6.114,2.707-8.795c0.378-0.869,3.89-4.505,2.012-4.972c2.211-0.124,5.066-6.391,5.415-7.85
			c0.582,0.406,3.135-1.678,4.53-2.512c1.262-0.754,4.16-2.613,5.286-3.761c0.419,1.101-7.717,6.377-9.218,7.938
			c-2.14,2.224-4.162,5.407-5.633,8.079c-5.119,9.299-6.114,18.419-2.702,28.329c1.524,4.427,2.617,8.829,3.557,13.408
			c-1.213-2.167-1.211-5.893-2.211-8.457c-0.87-2.233-1.738-4.049-2.382-6.214C412.504,340.348,411.775,334.811,412.512,329.749z"/>
	</g>
</g>
<g id="Layer_6">
	<g>
		<path class="st1" d="M331.003,504.644c-1.053,0-1.6-0.629-1.641-1.887c-0.014-0.492,0.144-1.477,0.472-2.953l0.779-3.589
			c0.191-1.08,0.711-1.62,1.559-1.62c0.492,0,0.892,0.185,1.2,0.554s0.461,0.807,0.461,1.312c0.027,1.148-0.335,3.227-1.087,6.234
			C332.418,503.994,331.837,504.644,331.003,504.644z"/>
		<path class="st1" d="M348.333,528.187c-2.885,0-5.216-0.629-6.993-1.887c-2.023-1.422-3.056-3.507-3.097-6.255
			c-0.055-4.416,1.497-7.424,4.655-9.023c-2.434-1.477-3.65-3.575-3.65-6.296c0-2.584,0.937-4.73,2.81-6.439
			c1.791-1.641,3.965-2.475,6.521-2.502c5.742-0.055,8.613,2.782,8.613,8.511c0,1.641-0.328,2.905-0.984,3.794
			c-0.533,0.738-1.565,1.497-3.097,2.276c2.037,1.025,3.466,2.133,4.286,3.322c0.957,1.395,1.436,3.315,1.436,5.763
			c0,2.789-1.032,4.977-3.097,6.562C353.822,527.462,351.354,528.187,348.333,528.187z M348.148,512.437
			c-2.174,1.012-3.623,1.887-4.348,2.625c-1.135,1.135-1.668,2.734-1.6,4.799c0.055,1.709,0.841,2.987,2.358,3.835
			c1.107,0.602,2.365,0.902,3.773,0.902c2.406,0,4.088-0.567,5.045-1.702c0.766-0.902,1.148-2.27,1.148-4.102
			c0-1.791-0.697-3.233-2.092-4.327C351.504,513.715,350.076,513.038,348.148,512.437z M348.517,499.455
			c-1.764,0-3.11,0.499-4.04,1.497c-0.834,0.93-1.244,2.188-1.23,3.773c0.014,1.914,1.586,3.274,4.717,4.081
			c1.641-0.479,2.816-0.957,3.527-1.436c1.135-0.766,1.702-1.791,1.702-3.076c0-1.859-0.417-3.165-1.251-3.917
			C351.231,499.763,350.089,499.455,348.517,499.455z"/>
		<path class="st1" d="M373.618,528.556c-3.568,0-6.193-1.306-7.875-3.917c-1.395-2.146-2.092-5.011-2.092-8.593
			c0-6.754,2.741-12.612,8.224-17.575l1.928-1.948c0.943-0.902,1.654-1.354,2.133-1.354c0.547,0,1.025,0.194,1.436,0.585
			c0.41,0.389,0.622,0.851,0.636,1.384c0.027,0.492-0.67,1.442-2.092,2.851l-4.184,4.081c-1.107,1.121-2.058,2.816-2.851,5.086
			c1.189-0.547,2.229-0.954,3.117-1.22c0.889-0.268,1.62-0.4,2.194-0.4c3.199,0,5.653,0.854,7.362,2.563s2.563,4.122,2.563,7.239
			c0,3.268-0.923,5.934-2.769,7.998C379.422,527.482,376.845,528.556,373.618,528.556z M373.618,511.719
			c-1.176,0-2.229,0.205-3.158,0.615c-0.355,0.164-1.251,0.69-2.687,1.579c-0.082,0.725-0.123,1.436-0.123,2.133
			c0,2.447,0.41,4.443,1.23,5.988c1.039,1.969,2.659,2.953,4.86,2.953c2.064,0,3.664-0.738,4.799-2.215
			c1.053-1.367,1.579-3.179,1.579-5.435c0-1.873-0.54-3.277-1.62-4.215C377.419,512.188,375.792,511.719,373.618,511.719z"/>
	</g>
</g>
<g id="Layer_7">
	<g>
		<polygon class="st7" points="398.789,219.943 383.987,209.581 402.053,209.898 407.333,192.619 412.614,209.898 430.68,209.581 
			415.878,219.943 421.763,237.026 407.333,226.151 392.904,237.027 		"/>
		<path class="st8" d="M407.333,199.462l3.809,12.463l13.03-0.229l-10.676,7.474l4.244,12.321l-10.407-7.844l-10.407,7.844
			l4.244-12.321l-10.676-7.474l13.03,0.229L407.333,199.462 M407.333,185.776l-3.825,12.517l-2.928,9.579l-10.015-0.176
			l-13.086-0.23l10.722,7.506l8.206,5.745l-3.262,9.471l-4.262,12.375l10.452-7.878l7.999-6.029l7.999,6.029l10.452,7.878
			l-4.262-12.375l-3.262-9.471l8.206-5.745l10.722-7.506l-13.086,0.23l-10.015,0.176l-2.928-9.579L407.333,185.776L407.333,185.776z
			"/>
	</g>
	<g>
		<polygon class="st7" points="210.289,362.943 195.487,352.581 213.553,352.898 218.833,335.619 224.114,352.898 242.18,352.581 
			227.378,362.943 233.263,380.026 218.833,369.151 204.404,380.027 		"/>
		<path class="st8" d="M218.833,342.462l3.809,12.463l13.03-0.229l-10.676,7.474l4.244,12.321l-10.407-7.844l-10.407,7.844
			l4.244-12.321l-10.676-7.474l13.03,0.229L218.833,342.462 M218.833,328.776l-3.825,12.517l-2.928,9.579l-10.015-0.176
			l-13.086-0.23l10.722,7.506l8.206,5.745l-3.262,9.471l-4.262,12.375l10.452-7.878l7.999-6.029l7.999,6.029l10.452,7.878
			l-4.262-12.375l-3.262-9.471l8.206-5.745l10.722-7.506l-13.086,0.23l-10.015,0.176l-2.928-9.579L218.833,328.776L218.833,328.776z
			"/>
	</g>
	<g>
		<polygon class="st7" points="475.69,362.943 460.889,352.581 478.954,352.898 484.234,335.619 489.516,352.898 507.581,352.581 
			492.779,362.943 498.664,380.026 484.234,369.151 469.806,380.027 		"/>
		<path class="st8" d="M484.235,342.462l3.809,12.463l13.03-0.229l-10.676,7.474l4.244,12.321l-10.407-7.844l-10.407,7.844
			l4.244-12.321l-10.676-7.474l13.03,0.229L484.235,342.462 M484.235,328.776l-3.825,12.517l-2.928,9.579l-10.015-0.176
			l-13.086-0.23l10.722,7.506l8.206,5.745l-3.262,9.471l-4.262,12.375l10.452-7.878l7.999-6.029l7.999,6.029l10.452,7.878
			l-4.262-12.375l-3.262-9.471l8.206-5.745l10.722-7.506l-13.086,0.23l-10.015,0.176l-2.928-9.579L484.235,328.776L484.235,328.776z
			"/>
	</g>
</g>
<g id="Layer_8">
	<g>
		<path class="st8" d="M165.049,295.087l5.054,11.083l36.433-16.613c2.099-0.957,3.868-1.199,5.309-0.727
			c1.441,0.473,2.5,1.45,3.176,2.932c0.687,1.505,0.732,2.965,0.138,4.379c-0.595,1.415-1.93,2.595-4.005,3.541l-36.432,16.613
			l5.054,11.084c0.791,1.733,0.997,3.196,0.617,4.388c-0.379,1.192-1.196,2.074-2.45,2.646c-1.3,0.593-2.526,0.622-3.68,0.087
			c-1.152-0.534-2.109-1.634-2.868-3.299l-14.726-32.293c-0.801-1.756-1.008-3.239-0.623-4.447c0.386-1.209,1.206-2.1,2.459-2.671
			c1.254-0.572,2.461-0.599,3.62-0.081C163.284,292.228,164.258,293.354,165.049,295.087z"/>
		<path class="st8" d="M183.491,241.039l2.509,19.92c2.31-0.316,4.291-1.039,5.941-2.169c1.652-1.13,2.83-2.503,3.536-4.121
			c0.706-1.617,0.944-3.333,0.716-5.149c-0.153-1.218-0.437-2.313-0.85-3.284c-0.413-0.971-0.983-1.891-1.711-2.759
			c-0.729-0.868-1.491-1.656-2.288-2.365c-0.796-0.708-1.872-1.621-3.225-2.739c-0.513-0.466-0.831-1.184-0.953-2.154
			c-0.131-1.044,0.048-1.926,0.539-2.645c0.491-0.719,1.258-1.144,2.302-1.275c0.92-0.116,2.042,0.109,3.363,0.675
			c1.322,0.567,2.64,1.505,3.955,2.818c1.315,1.312,2.484,3.022,3.507,5.129c1.023,2.107,1.715,4.59,2.075,7.45
			c0.824,6.541-0.401,11.861-3.674,15.961c-3.273,4.101-8.105,6.554-14.497,7.358c-3.009,0.379-5.857,0.283-8.543-0.288
			c-2.687-0.571-5.058-1.599-7.115-3.083c-2.056-1.484-3.733-3.42-5.033-5.808c-1.298-2.388-2.141-5.111-2.526-8.17
			c-0.501-3.979-0.091-7.498,1.229-10.557c1.32-3.059,3.221-5.465,5.704-7.217c2.483-1.753,5.104-2.803,7.864-3.15
			c2.562-0.323,4.314,0.202,5.257,1.574C182.517,236.362,183.155,238.378,183.491,241.039z M180.217,261.687l-2.325-18.465
			c-3.45,0.688-5.937,1.955-7.46,3.801c-1.523,1.847-2.117,4.101-1.782,6.761c0.32,2.537,1.458,4.509,3.417,5.917
			C174.025,261.109,176.742,261.771,180.217,261.687z"/>
		<path class="st8" d="M199.42,199.044c1.51,2.758,2.555,5.358,3.138,7.801c0.582,2.443,0.643,5.087,0.183,7.933
			c-0.42,2.598-1.303,4.797-2.648,6.599c-1.344,1.801-2.981,3.092-4.911,3.872c-1.929,0.78-3.92,1.003-5.974,0.671
			c-2.771-0.448-4.992-1.708-6.663-3.782c-1.67-2.073-2.592-4.697-2.764-7.874c-0.044-0.667-0.121-2.317-0.228-4.95
			c-0.108-2.632-0.23-4.893-0.37-6.782c-0.139-1.889-0.346-3.947-0.62-6.175c-2.692-0.308-4.74-0.087-6.144,0.663
			c-1.403,0.751-2.347,2.623-2.832,5.617c-0.416,2.574-0.37,4.568,0.137,5.983c0.508,1.415,1.404,2.703,2.689,3.862
			c1.285,1.16,2.125,1.969,2.521,2.426c0.396,0.458,0.492,1.317,0.288,2.58c-0.184,1.138-0.708,2.063-1.572,2.773
			c-0.863,0.711-1.865,0.974-3.003,0.79c-1.782-0.288-3.411-1.199-4.89-2.733c-1.479-1.534-2.545-3.726-3.203-6.574
			c-0.656-2.849-0.663-6.264-0.018-10.249c0.72-4.454,1.812-7.87,3.276-10.249c1.464-2.378,3.419-3.909,5.866-4.593
			c2.447-0.683,5.55-0.721,9.311-0.113c2.375,0.384,4.392,0.717,6.047,0.997c1.656,0.281,3.497,0.598,5.521,0.95
			c1.906,0.308,3.942,0.314,6.11,0.017s3.549-0.397,4.143-0.301c1.039,0.168,1.906,0.81,2.602,1.925
			c0.695,1.116,0.943,2.292,0.743,3.529c-0.168,1.039-0.823,1.987-1.964,2.843C203.051,197.359,201.46,198.207,199.42,199.044z
			 M184.651,197.341c0.305,1.573,0.531,3.825,0.679,6.756c0.148,2.932,0.276,4.964,0.384,6.099c0.109,1.135,0.498,2.264,1.166,3.388
			c0.669,1.124,1.746,1.806,3.23,2.046c1.534,0.248,2.933-0.122,4.198-1.111c1.264-0.989,2.049-2.423,2.353-4.304
			c0.324-2.004,0.185-3.924-0.42-5.762c-0.604-1.836-1.535-3.263-2.793-4.279c-1.386-1.163-3.835-2.029-7.349-2.598L184.651,197.341
			z"/>
		<path class="st8" d="M206.947,143.636l11.807,6.846c1.865,1.082,3.019,2.315,3.46,3.701c0.442,1.386,0.261,2.774-0.544,4.161
			c-0.78,1.345-1.878,2.164-3.294,2.458s-3.057-0.1-4.922-1.181l-14.148-8.204c-2.233-1.294-4.012-2.225-5.336-2.79
			c-1.324-0.565-2.576-0.74-3.758-0.527c-1.181,0.213-2.193,1.046-3.035,2.499c-1.685,2.906-1.797,5.397-0.337,7.476
			c1.461,2.079,4.056,4.199,7.785,6.361l12.002,6.959c1.843,1.069,2.994,2.294,3.453,3.676c0.459,1.382,0.293,2.755-0.499,4.122
			c-0.78,1.345-1.89,2.171-3.329,2.481c-1.44,0.31-3.082-0.07-4.925-1.139l-25.402-14.73c-1.669-0.968-2.715-2.088-3.136-3.361
			c-0.421-1.272-0.267-2.538,0.462-3.796c0.704-1.214,1.699-1.992,2.983-2.333c1.285-0.342,2.643-0.098,4.073,0.732l0.846,0.491
			c-0.95-2.608-1.35-5.042-1.199-7.301c0.151-2.259,0.849-4.462,2.094-6.609c1.295-2.233,2.852-3.894,4.672-4.983
			c1.819-1.089,3.931-1.632,6.334-1.629c-0.954-2.552-1.374-4.939-1.258-7.162c0.115-2.222,0.776-4.374,1.983-6.456
			c1.408-2.428,3.099-4.244,5.071-5.447c1.973-1.203,4.1-1.723,6.38-1.56c2.045,0.172,4.791,1.257,8.238,3.256l17.336,10.052
			c1.865,1.082,3.019,2.315,3.46,3.701c0.442,1.386,0.26,2.774-0.544,4.161c-0.78,1.345-1.89,2.171-3.329,2.481
			c-1.44,0.31-3.081-0.07-4.925-1.139l-14.929-8.657c-1.908-1.106-3.484-1.912-4.728-2.416c-1.243-0.503-2.463-0.624-3.659-0.361
			c-1.195,0.263-2.215,1.121-3.057,2.573c-0.679,1.171-0.977,2.484-0.893,3.938c0.084,1.455,0.542,2.813,1.373,4.078
			C200.696,139.576,203.153,141.436,206.947,143.636z"/>
		<path class="st8" d="M277.389,101.578l-14.456,8.645c-2.087,1.248-3.856,1.671-5.309,1.269c-1.453-0.402-2.79-1.624-4.012-3.668
			l-21.265-35.559c-1.248-2.086-1.688-3.86-1.32-5.322c0.367-1.46,1.573-2.802,3.617-4.024l15.327-9.166
			c2.259-1.351,4.3-2.381,6.124-3.092c1.824-0.71,3.63-1.061,5.418-1.05c1.517-0.001,3.012,0.251,4.483,0.758
			c1.471,0.508,2.803,1.245,3.995,2.211s2.199,2.139,3.022,3.515c2.831,4.733,2.535,9.611-0.885,14.636
			c7.4-1.738,12.812,0.253,16.233,5.975c1.583,2.646,2.33,5.434,2.241,8.363c-0.088,2.929-0.981,5.588-2.678,7.975
			c-1.081,1.465-2.483,2.88-4.207,4.247C281.994,98.656,279.884,100.085,277.389,101.578z M242.723,67.855l7.313,12.229l8.777-5.249
			c2.388-1.428,4.097-2.757,5.129-3.987c1.031-1.23,1.512-2.685,1.441-4.367c-0.002-1.225-0.338-2.396-1.007-3.516
			c-1.428-2.388-3.227-3.465-5.396-3.235c-2.169,0.231-4.996,1.389-8.481,3.473L242.723,67.855z M264.117,80.996l-9.971,5.962
			l8.259,13.811l10.293-6.156c6.475-3.872,8.317-8.142,5.525-12.81c-1.428-2.388-3.302-3.618-5.624-3.69
			C270.279,78.041,267.452,79.002,264.117,80.996z"/>
		<path class="st8" d="M296.882,43.514c-1.363,0.427-2.661,0.374-3.892-0.16s-2.086-1.566-2.565-3.097
			c-0.435-1.387-0.296-2.685,0.416-3.893c0.711-1.208,1.725-2.018,3.041-2.43c1.267-0.397,2.519-0.342,3.754,0.164
			c1.235,0.506,2.097,1.537,2.583,3.091c0.472,1.507,0.363,2.835-0.328,3.983C299.201,42.322,298.197,43.103,296.882,43.514z
			 M304.895,52.115l8.867,28.309c0.615,1.961,0.613,3.59-0.005,4.887s-1.645,2.17-3.08,2.619c-1.435,0.45-2.763,0.3-3.981-0.447
			c-1.219-0.747-2.128-2.078-2.728-3.992L295.19,55.47c-0.607-1.938-0.616-3.537-0.026-4.799c0.59-1.262,1.602-2.117,3.038-2.567
			c1.435-0.449,2.772-0.33,4.013,0.358C303.455,49.152,304.348,50.369,304.895,52.115z"/>
		<path class="st8" d="M362.866,66.719c0.115,1.273-0.142,2.668-0.771,4.185c-0.63,1.517-1.666,3.001-3.107,4.454
			c-1.441,1.452-3.312,2.686-5.61,3.7c-2.299,1.014-4.934,1.656-7.904,1.926c-6.316,0.573-11.413-0.819-15.292-4.18
			c-3.879-3.36-6.1-8.135-6.662-14.326c-0.38-4.193,0.094-7.974,1.424-11.342c1.33-3.367,3.451-6.07,6.361-8.109
			c2.911-2.039,6.5-3.252,10.769-3.64c2.646-0.24,5.109-0.073,7.388,0.5c2.279,0.574,4.242,1.402,5.888,2.486
			c1.646,1.083,2.938,2.281,3.875,3.593c0.938,1.312,1.461,2.566,1.569,3.765c0.111,1.224-0.251,2.301-1.085,3.232
			c-0.834,0.932-1.9,1.456-3.198,1.574c-0.849,0.077-1.574-0.077-2.175-0.463c-0.601-0.385-1.296-1.034-2.083-1.944
			c-1.421-1.783-2.854-3.088-4.3-3.913c-1.447-0.825-3.218-1.143-5.315-0.952c-3.021,0.274-5.347,1.675-6.98,4.201
			c-1.633,2.527-2.264,5.837-1.892,9.931c0.175,1.922,0.572,3.667,1.192,5.233c0.62,1.567,1.432,2.878,2.434,3.932
			s2.166,1.817,3.492,2.288c1.326,0.471,2.75,0.637,4.273,0.499c2.047-0.186,3.758-0.819,5.132-1.9
			c1.374-1.081,2.535-2.646,3.481-4.695c0.52-1.205,1.112-2.165,1.777-2.879c0.665-0.715,1.521-1.12,2.57-1.215
			c1.248-0.113,2.328,0.267,3.238,1.141C362.265,64.672,362.769,65.646,362.866,66.719z"/>
		<path class="st8" d="M383.981,83.334l1.342-2.084l-6.639-33.574c-0.432-1.94-0.572-3.318-0.422-4.131
			c0.16-0.863,0.529-1.623,1.11-2.28c0.58-0.657,1.3-1.136,2.158-1.436c0.858-0.3,1.706-0.373,2.544-0.218
			c1.454,0.269,2.466,0.934,3.034,1.995s0.977,2.507,1.225,4.337l3.946,26.424l12.369-21.61c0.987-1.754,1.838-3.114,2.552-4.078
			c0.713-0.964,1.394-1.578,2.041-1.84s1.502-0.296,2.562-0.1c0.764,0.141,1.46,0.48,2.087,1.017s1.067,1.186,1.322,1.946
			c0.255,0.761,0.312,1.524,0.17,2.288c-0.186,0.45-0.469,1.086-0.85,1.907c-0.382,0.822-0.814,1.646-1.299,2.475l-19.533,32.023
			c-1.694,2.822-3.243,4.995-4.646,6.52c-1.404,1.524-3.085,2.584-5.042,3.178c-1.958,0.594-4.453,0.61-7.484,0.05
			c-2.958-0.547-5.117-1.277-6.478-2.191c-1.359-0.915-1.883-2.222-1.568-3.923c0.214-1.159,0.73-1.987,1.55-2.485
			c0.818-0.499,1.917-0.621,3.298-0.365c0.542,0.1,1.059,0.272,1.549,0.516c0.613,0.266,1.154,0.443,1.623,0.529
			c1.158,0.214,2.102,0.21,2.831-0.012c0.729-0.222,1.438-0.709,2.125-1.461C382.145,85.996,382.986,84.857,383.981,83.334z"/>
		<path class="st8" d="M454.261,93.645c-0.558,1.15-1.498,2.213-2.819,3.188c-1.322,0.975-2.976,1.712-4.959,2.213
			c-1.983,0.5-4.222,0.592-6.714,0.275c-2.493-0.318-5.081-1.126-7.765-2.428c-5.707-2.767-9.355-6.589-10.944-11.469
			c-1.59-4.879-1.029-10.116,1.684-15.709c1.837-3.789,4.193-6.783,7.07-8.981c2.876-2.199,6.088-3.42,9.633-3.666
			s7.246,0.567,11.103,2.437c2.391,1.159,4.414,2.573,6.071,4.239c1.657,1.667,2.911,3.39,3.763,5.167
			c0.852,1.778,1.34,3.47,1.466,5.077c0.126,1.607-0.073,2.952-0.598,4.035c-0.536,1.105-1.402,1.842-2.597,2.209
			c-1.195,0.368-2.379,0.267-3.552-0.301c-0.767-0.372-1.309-0.878-1.624-1.519c-0.316-0.641-0.577-1.554-0.782-2.74
			c-0.297-2.261-0.852-4.118-1.665-5.571c-0.814-1.453-2.168-2.639-4.062-3.558c-2.729-1.323-5.445-1.324-8.147-0.001
			s-4.95,3.833-6.743,7.532c-0.842,1.737-1.401,3.436-1.678,5.099c-0.277,1.662-0.259,3.204,0.056,4.624
			c0.314,1.42,0.918,2.674,1.812,3.761c0.894,1.088,2.028,1.965,3.404,2.632c1.849,0.896,3.641,1.237,5.376,1.019
			c1.735-0.217,3.536-0.96,5.404-2.227c1.066-0.764,2.069-1.28,3.008-1.55s1.882-0.174,2.829,0.285
			c1.127,0.547,1.855,1.429,2.185,2.647C454.802,91.582,454.731,92.676,454.261,93.645z"/>
		<path class="st8" d="M460.396,106.859l27.572-34.949c1.272-1.613,2.594-2.55,3.965-2.81c1.37-0.26,2.665,0.091,3.886,1.054
			c1.22,0.962,1.881,2.147,1.985,3.554c0.103,1.406-0.489,2.927-1.777,4.56l-27.572,34.949c-1.289,1.633-2.635,2.56-4.036,2.778
			c-1.401,0.218-2.703-0.146-3.903-1.092c-1.181-0.931-1.806-2.111-1.876-3.54C458.567,109.935,459.153,108.434,460.396,106.859z"/>
		<path class="st8" d="M504.598,133.81l-12.898-15.386c-1.771,1.517-3.044,3.197-3.819,5.042c-0.776,1.845-1.023,3.637-0.74,5.379
			c0.282,1.742,1.012,3.314,2.188,4.716c0.789,0.941,1.62,1.708,2.493,2.301c0.873,0.593,1.851,1.057,2.934,1.392
			c1.082,0.335,2.149,0.585,3.203,0.749c1.053,0.164,2.451,0.349,4.194,0.556c0.684,0.114,1.34,0.545,1.968,1.294
			c0.677,0.807,1.003,1.645,0.979,2.515c-0.023,0.87-0.438,1.643-1.244,2.319c-0.711,0.596-1.775,1.014-3.193,1.254
			c-1.418,0.24-3.034,0.165-4.851-0.227c-1.816-0.391-3.725-1.195-5.726-2.412c-2.002-1.217-3.929-2.93-5.78-5.139
			c-4.234-5.052-6.087-10.188-5.557-15.407c0.53-5.22,3.264-9.899,8.2-14.038c2.324-1.948,4.771-3.41,7.338-4.385
			c2.568-0.975,5.118-1.396,7.65-1.262c2.533,0.134,4.991,0.853,7.377,2.157c2.385,1.304,4.567,3.137,6.549,5.5
			c2.576,3.073,4.138,6.253,4.685,9.54c0.548,3.286,0.252,6.338-0.885,9.156c-1.138,2.818-2.772,5.121-4.904,6.908
			c-1.979,1.659-3.736,2.167-5.272,1.524C507.949,137.214,506.32,135.865,504.598,133.81z M496.165,114.68l11.956,14.262
			c2.528-2.446,3.933-4.858,4.213-7.235c0.28-2.377-0.441-4.594-2.164-6.649c-1.643-1.959-3.668-3.001-6.077-3.124
			C501.684,111.812,499.041,112.727,496.165,114.68z"/>
		<path class="st8" d="M525.206,183.93c-2.596,1.135-5.094,1.475-7.494,1.02c-2.401-0.455-4.618-1.708-6.65-3.76
			c-2.032-2.053-3.822-4.847-5.368-8.383c-1.477-3.376-2.225-6.496-2.246-9.359c-0.021-2.863,0.493-5.208,1.541-7.034
			s2.353-3.08,3.914-3.763c1.034-0.452,2.078-0.471,3.135-0.058c1.056,0.414,1.83,1.183,2.322,2.309
			c0.432,0.987,0.522,1.85,0.271,2.59c-0.252,0.739-0.708,1.541-1.37,2.404c-1.255,1.698-2.002,3.399-2.241,5.104
			s0.148,3.717,1.162,6.037c0.823,1.883,1.918,3.245,3.284,4.083c1.365,0.839,2.587,1.023,3.667,0.551
			c1.653-0.723,2.585-1.876,2.796-3.459c0.211-1.583,0.033-3.96-0.533-7.132c-0.612-3.59-0.921-6.594-0.925-9.013
			c-0.005-2.419,0.45-4.554,1.364-6.403c0.915-1.85,2.429-3.236,4.542-4.161c1.883-0.823,3.908-1.039,6.077-0.646
			c2.168,0.392,4.231,1.466,6.189,3.223c1.958,1.756,3.615,4.185,4.971,7.285c1.064,2.434,1.768,4.732,2.112,6.894
			c0.343,2.162,0.373,4.077,0.091,5.746c-0.282,1.668-0.792,3.068-1.529,4.198c-0.737,1.129-1.6,1.91-2.587,2.342
			c-1.08,0.472-2.122,0.497-3.127,0.075c-1.006-0.422-1.8-1.3-2.382-2.631c-0.422-0.965-0.505-1.907-0.25-2.825
			c0.255-0.918,0.742-2.055,1.463-3.41c0.607-1.114,0.977-2.273,1.105-3.479c0.13-1.206-0.167-2.635-0.891-4.289
			c-0.743-1.7-1.723-2.954-2.938-3.763c-1.216-0.809-2.363-0.978-3.442-0.505c-0.987,0.432-1.616,1.199-1.887,2.302
			c-0.27,1.104-0.305,2.445-0.105,4.027c0.198,1.582,0.537,3.731,1.015,6.45c0.562,3.228,0.755,5.982,0.576,8.263
			c-0.18,2.28-0.732,4.191-1.659,5.732C528.253,182.029,526.929,183.176,525.206,183.93z"/>
		<path class="st8" d="M523.84,212.947l43.266-3.722c2.248-0.193,3.978,0.173,5.189,1.101c1.212,0.927,1.888,2.202,2.027,3.826
			c0.144,1.673-0.296,3.076-1.317,4.208c-1.022,1.132-2.67,1.796-4.942,1.991l-43.266,3.722c-2.272,0.195-4.015-0.177-5.228-1.117
			c-1.213-0.94-1.892-2.247-2.035-3.919c-0.138-1.599,0.317-2.965,1.364-4.099C519.945,213.804,521.593,213.14,523.84,212.947z"/>
		<path class="st8" d="M553.464,249.223l-1.229-0.179c2.096,2.13,3.541,4.335,4.335,6.617s0.99,4.799,0.588,7.552
			c-0.391,2.679-1.323,4.987-2.796,6.925c-1.475,1.938-3.354,3.272-5.638,4.002c-1.339,0.489-2.741,0.727-4.208,0.716
			c-1.468-0.012-3.317-0.18-5.55-0.506l-18.899-2.759c-2.034-0.297-3.504-0.986-4.409-2.068c-0.906-1.083-1.251-2.367-1.033-3.855
			c0.221-1.513,0.934-2.663,2.137-3.45c1.204-0.787,2.798-1.036,4.783-0.746l16.927,2.471c3.349,0.489,5.978,0.398,7.887-0.273
			c1.908-0.671,3.066-2.396,3.472-5.174c0.265-1.811-0.034-3.539-0.896-5.184c-0.861-1.646-2.185-2.954-3.968-3.923
			c-1.44-0.717-4.231-1.378-8.373-1.982l-12.724-1.857c-2.06-0.3-3.533-1.003-4.423-2.108s-1.225-2.415-1.004-3.927
			c0.214-1.464,0.923-2.589,2.127-3.375c1.203-0.787,2.798-1.035,4.782-0.746l29.354,4.285c1.935,0.283,3.317,0.915,4.149,1.898
			c0.831,0.982,1.141,2.205,0.928,3.669c-0.131,0.893-0.459,1.667-0.986,2.326c-0.526,0.658-1.243,1.142-2.149,1.453
			C555.739,249.333,554.679,249.4,553.464,249.223z"/>
		<path class="st8" d="M508.016,315.439c-1.16-0.537-2.239-1.459-3.236-2.764c-0.997-1.307-1.764-2.945-2.299-4.92
			c-0.534-1.975-0.665-4.211-0.392-6.709c0.274-2.498,1.038-5.1,2.293-7.806c2.667-5.753,6.426-9.468,11.277-11.142
			c4.851-1.674,10.096-1.204,15.735,1.41c3.82,1.771,6.855,4.075,9.104,6.914c2.248,2.838,3.525,6.027,3.832,9.567
			c0.307,3.541-0.441,7.255-2.244,11.144c-1.117,2.41-2.495,4.457-4.133,6.145c-1.638,1.686-3.338,2.969-5.101,3.852
			c-1.763,0.881-3.446,1.398-5.051,1.553s-2.953-0.021-4.045-0.527c-1.114-0.518-1.865-1.369-2.254-2.557
			c-0.389-1.189-0.309-2.375,0.24-3.557c0.358-0.773,0.854-1.324,1.49-1.65c0.635-0.328,1.544-0.605,2.726-0.83
			c2.255-0.336,4.102-0.924,5.541-1.762c1.438-0.84,2.601-2.213,3.486-4.123c1.275-2.752,1.229-5.468-0.14-8.146
			c-1.369-2.679-3.919-4.883-7.648-6.612c-1.751-0.812-3.46-1.342-5.127-1.589c-1.667-0.248-3.208-0.202-4.621,0.137
			c-1.415,0.339-2.658,0.964-3.729,1.876c-1.072,0.912-1.93,2.062-2.573,3.449c-0.864,1.864-1.173,3.662-0.925,5.393
			c0.247,1.731,1.021,3.52,2.32,5.365c0.782,1.053,1.316,2.047,1.602,2.98s0.207,1.877-0.235,2.832
			c-0.527,1.137-1.397,1.881-2.609,2.23S508.993,315.893,508.016,315.439z"/>
	</g>
	<g>
		<path class="st8" d="M317.427,407.896l-7.813-3.829l-12.586,25.683c-0.725,1.479-1.593,2.415-2.602,2.808
			c-1.01,0.392-2.037,0.332-3.082-0.18c-1.061-0.521-1.749-1.306-2.061-2.356c-0.313-1.05-0.111-2.307,0.606-3.77l12.586-25.683
			l-7.813-3.829c-1.222-0.599-1.999-1.313-2.329-2.144c-0.331-0.83-0.28-1.688,0.154-2.571c0.449-0.917,1.113-1.488,1.992-1.716
			s1.905-0.053,3.079,0.522l22.765,11.156c1.238,0.606,2.024,1.331,2.359,2.173c0.335,0.843,0.286,1.706-0.147,2.59
			s-1.087,1.445-1.962,1.685S318.649,408.494,317.427,407.896z"/>
		<path class="st8" d="M335.747,433.302l-13.982-3.188c-0.353,1.628-0.352,3.134,0.003,4.519c0.354,1.385,0.988,2.511,1.901,3.38
			c0.913,0.869,2.006,1.449,3.281,1.74c0.855,0.194,1.659,0.272,2.412,0.232c0.752-0.039,1.509-0.197,2.27-0.474
			c0.761-0.276,1.476-0.596,2.146-0.957c0.669-0.361,1.545-0.859,2.626-1.494c0.438-0.231,0.998-0.269,1.679-0.113
			c0.733,0.167,1.281,0.503,1.643,1.008s0.46,1.124,0.293,1.857c-0.147,0.646-0.573,1.343-1.275,2.092
			c-0.704,0.748-1.656,1.403-2.858,1.965s-2.635,0.928-4.3,1.1c-1.664,0.172-3.5,0.028-5.507-0.43
			c-4.591-1.046-7.862-3.169-9.814-6.368s-2.416-7.042-1.394-11.528c0.481-2.112,1.243-4,2.283-5.663
			c1.04-1.664,2.31-3.004,3.809-4.021c1.499-1.017,3.208-1.669,5.129-1.957c1.92-0.287,3.954-0.187,6.101,0.303
			c2.792,0.637,5.054,1.771,6.784,3.406c1.73,1.634,2.88,3.498,3.449,5.593s0.633,4.11,0.191,6.048
			c-0.41,1.798-1.191,2.846-2.342,3.144C339.124,433.792,337.615,433.728,335.747,433.302z M322.69,426.056l12.961,2.955
			c0.382-2.483,0.14-4.462-0.727-5.937c-0.867-1.474-2.234-2.424-4.102-2.85c-1.78-0.405-3.383-0.123-4.806,0.847
			C324.592,422.041,323.484,423.703,322.69,426.056z"/>
		<path class="st8" d="M366.231,445.104l-5.444-7.729l-5.324,7.902c-0.77,1.105-1.424,1.895-1.962,2.369
			c-0.539,0.474-1.229,0.718-2.07,0.731c-0.931,0.016-1.728-0.263-2.391-0.834c-0.663-0.571-1-1.232-1.013-1.984
			c-0.012-0.77,0.471-1.879,1.45-3.327l6.479-9.613l-6.009-7.826c-1.042-1.29-1.57-2.419-1.586-3.386
			c-0.012-0.751,0.281-1.409,0.881-1.975c0.599-0.564,1.392-0.855,2.376-0.871c0.859-0.014,1.575,0.216,2.146,0.69
			s1.242,1.225,2.011,2.25l4.857,6.422l4.514-6.573c0.752-1.087,1.407-1.867,1.963-2.342c0.557-0.475,1.255-0.719,2.097-0.732
			c0.967-0.016,1.772,0.244,2.417,0.78c0.644,0.536,0.973,1.188,0.985,1.958c0.009,0.555-0.112,1.09-0.364,1.604
			c-0.251,0.515-0.64,1.126-1.165,1.832l-5.752,8.017l6.786,9.398c1.062,1.47,1.6,2.579,1.612,3.331
			c0.012,0.771-0.299,1.438-0.935,2.003s-1.428,0.855-2.377,0.871c-0.841,0.014-1.557-0.217-2.146-0.69
			C367.68,446.907,367,446.148,366.231,445.104z"/>
		<path class="st8" d="M401.603,438.457c-1.399,1.756-2.824,3.162-4.272,4.221c-1.448,1.058-3.174,1.828-5.175,2.312
			c-1.827,0.44-3.521,0.466-5.078,0.077c-1.558-0.388-2.86-1.109-3.906-2.165s-1.743-2.306-2.092-3.75
			c-0.47-1.949-0.253-3.761,0.651-5.434s2.378-3.005,4.424-3.995c0.427-0.214,1.493-0.719,3.197-1.517s3.16-1.503,4.366-2.116
			c1.205-0.613,2.504-1.317,3.896-2.114c-0.541-1.858-1.252-3.146-2.134-3.863c-0.882-0.718-2.376-0.822-4.482-0.314
			c-1.81,0.437-3.11,1.017-3.902,1.742c-0.792,0.725-1.394,1.671-1.803,2.838s-0.71,1.943-0.901,2.33
			c-0.192,0.388-0.732,0.688-1.62,0.902c-0.801,0.192-1.555,0.104-2.262-0.27s-1.156-0.96-1.35-1.761
			c-0.302-1.253-0.151-2.578,0.45-3.976c0.603-1.397,1.751-2.706,3.446-3.926c1.695-1.219,3.943-2.166,6.746-2.842
			c3.133-0.755,5.685-0.979,7.655-0.672s3.52,1.173,4.646,2.596s2.008,3.457,2.646,6.103c0.403,1.671,0.74,3.091,1.013,4.259
			s0.572,2.468,0.899,3.899c0.323,1.34,0.882,2.684,1.676,4.029c0.795,1.347,1.242,2.229,1.343,2.646
			c0.176,0.73-0.007,1.479-0.55,2.246c-0.543,0.766-1.249,1.254-2.119,1.464c-0.731,0.176-1.537,0.006-2.416-0.509
			C403.715,440.383,402.718,439.569,401.603,438.457z M398.646,428.258c-0.952,0.635-2.373,1.405-4.263,2.312
			c-1.891,0.907-3.194,1.553-3.912,1.938s-1.354,0.953-1.909,1.703c-0.556,0.752-0.708,1.648-0.456,2.693
			c0.261,1.079,0.891,1.898,1.892,2.458c1,0.561,2.162,0.681,3.484,0.361c1.41-0.34,2.637-0.962,3.68-1.867s1.726-1.912,2.048-3.021
			c0.384-1.234,0.277-3.088-0.318-5.56L398.646,428.258z"/>
		<path class="st8" d="M438.333,416.625c0.929,1.797,1.286,3.562,1.073,5.294c-0.213,1.732-1.004,3.371-2.373,4.914
			c-1.368,1.544-3.277,2.949-5.727,4.215c-2.339,1.208-4.527,1.886-6.567,2.033s-3.735-0.11-5.085-0.773
			c-1.351-0.662-2.305-1.534-2.863-2.616c-0.37-0.716-0.433-1.459-0.187-2.231c0.246-0.771,0.759-1.359,1.538-1.763
			c0.684-0.353,1.295-0.457,1.834-0.312c0.538,0.146,1.131,0.434,1.777,0.865c1.268,0.816,2.515,1.27,3.741,1.361
			s2.643-0.277,4.249-1.107c1.305-0.674,2.225-1.517,2.759-2.529c0.535-1.012,0.61-1.892,0.224-2.639
			c-0.592-1.146-1.457-1.757-2.595-1.834c-1.139-0.076-2.825,0.16-5.06,0.711c-2.53,0.602-4.657,0.961-6.382,1.075
			c-1.724,0.115-3.267-0.11-4.627-0.677c-1.361-0.566-2.419-1.581-3.176-3.045c-0.674-1.304-0.921-2.737-0.742-4.302
			c0.18-1.563,0.85-3.084,2.012-4.562c1.161-1.477,2.815-2.77,4.963-3.879c1.686-0.871,3.291-1.479,4.816-1.824
			c1.524-0.345,2.889-0.454,4.091-0.331c1.203,0.125,2.224,0.423,3.063,0.896c0.839,0.474,1.436,1.052,1.788,1.735
			c0.387,0.748,0.452,1.49,0.198,2.226c-0.255,0.736-0.844,1.343-1.766,1.819c-0.668,0.346-1.336,0.448-2.002,0.309
			c-0.666-0.139-1.499-0.434-2.498-0.885c-0.821-0.382-1.665-0.591-2.53-0.627c-0.865-0.037-1.871,0.241-3.016,0.833
			c-1.178,0.608-2.026,1.364-2.547,2.268c-0.521,0.904-0.587,1.729-0.201,2.478c0.354,0.684,0.93,1.097,1.729,1.237
			c0.799,0.143,1.757,0.105,2.875-0.11c1.118-0.215,2.635-0.555,4.551-1.021c2.274-0.55,4.229-0.814,5.863-0.792
			c1.633,0.022,3.021,0.328,4.162,0.917C436.838,414.541,437.717,415.432,438.333,416.625z"/>
	</g>
</g>
<g id="Layer_1" class="st9">
	<image style="display:inline;overflow:visible;" width="720" height="611" xlink:href="../../../../../Downloads/TBI-Logo.png" >
	</image>
</g>
</svg>
